<svg width="557" height="566" viewBox="0 0 557 566" fill="none" xmlns="http://www.w3.org/2000/svg">
<path d="M557 170C438.2 152 389.5 49.1667 380 0C349.2 120 255.167 163.333 212 170C326.4 194 371.667 294 380 341C406 222.2 508.833 177.5 557 170Z" fill="white"/>
<path d="M179.5 328C128.7 317.6 97 266.333 87.5 242C69.5 299.6 21.6667 323.333 0 328C61.2 349.6 83.8333 394.667 87.5 414.5C112.3 353.7 159.167 331.5 179.5 328Z" fill="white"/>
<path d="M299.5 516C273.5 508 257.667 482.667 253 471C246.2 493.8 224 516 212 516C241.5 525.5 253 557.5 253 565.5C262.2 531.5 287.833 518.333 299.5 516Z" fill="white"/>
</svg>
